<?xml version="1.0" standalone="no"?>
<!DOCTYPE svg PUBLIC "-//W3C//DTD SVG 20010904//EN"
 "http://www.w3.org/TR/2001/REC-SVG-20010904/DTD/svg10.dtd">
<svg version="1.0" xmlns="http://www.w3.org/2000/svg"
 width="700.000000pt" height="700.000000pt" viewBox="0 0 700.000000 700.000000"
 preserveAspectRatio="xMidYMid meet">
<metadata>
Created by potrace 1.14, written by Peter Selinger 2001-2017
</metadata>
<g transform="translate(0.000000,700.000000) scale(0.100000,-0.100000)"
fill="#000000" stroke="none">
<path d="M3295 6520 c-738 -54 -1411 -360 -1929 -876 -1187 -1184 -1190 -3099
-5 -4283 486 -485 1087 -777 1784 -867 176 -23 534 -23 710 0 275 35 521 98
760 192 863 342 1536 1081 1790 1965 84 291 118 535 118 849 0 405 -66 754
-210 1115 -412 1033 -1352 1759 -2448 1889 -164 19 -427 27 -570 16z m340
-1951 c371 -51 674 -270 835 -603 184 -380 128 -833 -144 -1157 -317 -379
-849 -494 -1292 -279 -472 229 -712 757 -573 1260 29 107 108 264 179 358 232
308 622 473 995 421z"/>
<path d="M3412 4179 c-154 -20 -276 -82 -393 -199 -69 -68 -94 -101 -127 -170
-55 -113 -75 -194 -75 -310 0 -116 20 -197 75 -310 58 -120 178 -240 298 -298
113 -55 194 -75 310 -75 116 0 197 20 310 75 120 58 240 178 298 298 55 113
75 194 75 310 0 116 -20 197 -75 310 -33 68 -58 102 -127 171 -69 69 -103 94
-171 127 -133 65 -267 89 -398 71z"/>
</g>
</svg>
